<?xml version="1.0" standalone="no"?>
<!DOCTYPE svg PUBLIC "-//W3C//DTD SVG 20010904//EN"
 "http://www.w3.org/TR/2001/REC-SVG-20010904/DTD/svg10.dtd">
<svg version="1.0" xmlns="http://www.w3.org/2000/svg"
 width="272.000000pt" height="272.000000pt" viewBox="0 0 272.000000 272.000000"
 preserveAspectRatio="xMidYMid meet">
<metadata>
Created by potrace 1.11, written by Peter Selinger 2001-2013
</metadata>
<g transform="translate(0.000000,272.000000) scale(0.100000,-0.100000)"
fill="#000000" stroke="none">
<path d="M1326 2669 c-57 -9 -113 -50 -137 -100 -9 -19 -26 -43 -38 -53 -24
-22 -26 -41 -8 -79 10 -22 19 -27 50 -27 36 0 37 1 37 35 0 19 -5 44 -12 54
-10 16 -8 26 7 54 40 75 147 99 252 55 29 -12 53 -25 53 -30 0 -4 10 -18 23
-30 15 -16 22 -36 23 -64 2 -55 9 -64 49 -64 41 0 48 10 55 74 4 44 9 52 40
69 41 23 104 18 130 -10 9 -10 24 -43 35 -73 10 -30 26 -67 36 -81 10 -14 18
-34 18 -45 1 -10 6 -54 13 -97 6 -42 8 -80 5 -84 -13 -12 -69 51 -92 103 -12
28 -52 82 -88 120 -57 61 -66 67 -81 55 -16 -13 -13 -19 32 -65 54 -56 92
-108 92 -125 0 -7 -24 -11 -64 -11 -81 0 -136 -27 -182 -90 -44 -61 -61 -159
-42 -240 28 -114 89 -155 221 -149 66 4 78 7 111 37 20 17 39 32 42 32 3 0 26
-20 51 -44 25 -25 55 -46 66 -48 14 -2 24 -14 30 -38 5 -19 12 -39 17 -45 4
-5 13 -28 20 -50 7 -22 19 -49 26 -61 36 -54 57 -149 58 -254 1 -97 -1 -109
-27 -155 -33 -60 -71 -113 -98 -138 -10 -10 -19 -21 -19 -26 0 -34 -248 -230
-310 -246 -28 -7 -95 25 -165 76 -22 17 -63 45 -90 62 -72 45 -124 96 -147
142 -12 22 -34 60 -50 83 -17 24 -41 80 -55 125 -21 69 -25 95 -20 165 4 74 3
82 -13 82 -25 0 -30 -19 -30 -123 0 -78 17 -194 45 -298 6 -23 1 -29 -38 -52
-54 -32 -147 -131 -147 -157 0 -11 23 -38 53 -62 56 -47 227 -220 227 -231 0
-8 -71 -27 -81 -21 -5 2 -30 -2 -56 -11 -80 -25 -196 -35 -245 -21 -37 11 -45
18 -55 52 -20 67 -64 267 -70 316 l-6 48 57 0 c61 0 116 21 116 45 0 26 -111
19 -230 -15 -20 -6 -24 -12 -22 -36 3 -26 50 -191 87 -304 15 -45 19 -80 10
-80 -2 0 -37 11 -77 24 -78 25 -132 52 -188 94 -71 53 -73 56 -66 109 20 170
30 233 36 233 4 0 19 -9 33 -20 60 -47 64 -7 5 50 -31 29 -50 40 -68 38 -30
-4 -35 -21 -48 -171 -6 -60 -12 -111 -15 -113 -20 -21 -103 90 -126 168 -7 23
-17 58 -22 75 -6 18 -7 37 -4 43 4 6 30 9 58 8 68 -2 126 8 212 37 39 13 97
31 130 40 33 9 85 25 115 37 30 11 80 29 111 40 71 24 190 137 267 253 53 80
112 238 112 299 0 15 5 36 11 47 8 16 7 29 -6 55 -15 31 -20 34 -63 35 -80 2
-125 -1 -187 -11 -33 -5 -96 -15 -140 -21 -74 -10 -197 -38 -237 -54 -39 -15
-15 15 39 51 96 64 301 134 391 134 25 0 59 4 76 9 59 19 194 42 232 41 22 -1
59 -2 84 -3 42 -2 45 0 45 23 0 19 -6 26 -30 31 -56 12 -216 9 -278 -5 -301
-71 -335 -81 -477 -150 -121 -59 -193 -99 -230 -128 -16 -13 -63 -48 -106 -78
-43 -30 -99 -75 -126 -99 -53 -48 -128 -152 -128 -177 0 -8 -6 -25 -12 -37
-35 -63 -49 -237 -23 -287 8 -16 34 -41 58 -54 40 -24 44 -30 60 -98 18 -75
96 -247 122 -268 8 -7 15 -18 15 -24 0 -6 9 -17 20 -24 13 -8 20 -23 20 -42 0
-54 -22 -180 -32 -180 -5 0 -26 17 -46 38 -20 21 -54 45 -74 54 -32 15 -38 15
-49 2 -7 -8 -14 -39 -16 -67 -4 -44 0 -59 23 -94 34 -51 59 -63 134 -63 68 0
60 -13 81 130 13 90 17 117 18 138 1 19 49 14 60 -6 5 -10 35 -31 65 -46 64
-32 68 -45 38 -130 l-17 -50 -75 -18 c-106 -25 -147 -75 -103 -126 24 -26 75
-42 137 -42 l51 0 23 88 c12 48 24 99 26 114 1 15 11 45 21 67 l17 40 52 -6
c92 -11 106 -23 123 -105 5 -25 2 -28 -20 -28 -51 0 -89 -14 -118 -42 -41 -42
-38 -62 15 -89 36 -17 53 -20 91 -14 88 13 113 66 84 181 -15 59 -6 67 57 57
l49 -8 12 -100 c6 -55 17 -129 23 -165 21 -121 12 -110 90 -110 63 0 73 3 102
29 29 26 32 32 23 57 -10 28 -13 29 -83 32 -65 3 -72 5 -77 25 -17 76 -22 109
-24 167 l-2 65 90 19 c50 10 108 27 128 37 71 36 109 24 171 -58 l32 -41 -34
-69 c-43 -86 -49 -115 -32 -138 17 -24 36 -16 110 45 64 54 89 95 84 141 -2
28 -10 37 -44 54 -23 11 -63 39 -90 63 -39 35 -45 45 -34 52 8 6 22 10 31 10
8 0 59 23 112 50 116 60 137 63 137 20 0 -17 7 -47 16 -68 10 -21 18 -70 19
-114 2 -42 5 -81 9 -86 12 -19 87 -23 131 -6 40 15 125 101 125 126 0 6 -9 23
-21 39 -15 21 -29 29 -50 29 -43 0 -92 -23 -117 -55 -12 -16 -24 -26 -26 -24
-4 4 -14 82 -23 176 l-5 62 68 44 c72 47 198 163 228 210 10 15 26 27 36 27
36 0 267 -131 297 -167 28 -35 140 44 203 144 36 56 39 96 9 117 -19 13 -26
13 -63 -1 -22 -8 -54 -30 -71 -49 -56 -62 -75 -87 -75 -99 0 -7 -6 -18 -14
-24 -11 -9 -23 -5 -57 18 -24 16 -61 37 -81 47 -21 10 -38 21 -38 26 0 4 -16
14 -35 22 -36 16 -44 39 -26 74 6 9 22 55 38 102 40 124 39 230 -3 320 -17 36
-39 85 -49 110 -11 25 -27 57 -37 72 -29 42 -23 55 35 73 98 32 162 154 162
314 0 76 -2 85 -25 103 -14 10 -37 30 -52 44 -37 34 -126 52 -171 36 -51 -18
-66 -15 -72 16 -3 15 -10 41 -15 58 -6 17 -10 41 -10 55 0 13 -15 56 -34 94
-19 39 -37 77 -39 86 -3 9 -27 26 -53 39 -59 27 -108 23 -165 -14 -48 -32 -57
-32 -90 -2 -35 33 -136 82 -179 88 -19 2 -57 1 -84 -3z m511 -484 c55 -28 53
-64 -2 -38 -29 14 -37 14 -88 -1 -65 -19 -102 -57 -112 -115 -13 -81 19 -136
87 -147 42 -7 133 35 143 66 11 35 25 22 25 -24 0 -39 -4 -48 -32 -70 -55 -40
-108 -51 -176 -35 -65 15 -86 35 -101 96 -28 108 -2 199 71 257 27 21 44 26
94 26 35 0 74 -7 91 -15z m337 6 c21 -5 52 -23 68 -40 27 -27 30 -38 31 -93 1
-124 -40 -194 -142 -240 -75 -35 -161 -7 -177 58 -9 35 0 39 34 15 21 -15 45
-21 81 -21 47 0 55 4 91 40 33 34 40 48 41 83 2 64 -1 77 -24 114 -26 39 -49
47 -122 41 -68 -6 -75 13 -12 35 51 18 80 19 131 8z m-339 -112 c27 -51 -8
-121 -74 -149 -33 -13 -35 -13 -58 16 -19 22 -23 37 -19 64 10 62 48 96 113
99 15 1 27 -9 38 -30z m308 -6 c18 -31 18 -35 2 -78 -26 -66 -82 -93 -136 -65
-30 17 -26 90 8 130 49 59 96 63 126 13z m-919 -220 c23 -77 -75 -337 -153
-404 -47 -41 -151 -118 -206 -151 -43 -27 -203 -93 -295 -123 -30 -10 -59 -21
-65 -25 -28 -21 -136 -42 -208 -41 -89 1 -144 23 -167 65 -12 24 -11 35 9 99
12 40 26 87 31 106 29 111 141 260 230 303 70 34 149 68 158 68 6 0 50 13 99
29 48 16 135 37 193 46 58 9 126 21 152 26 26 6 65 8 85 5 21 -3 54 -2 73 3
52 13 58 13 64 -6z m1370 -855 c-40 -67 -109 -148 -125 -148 -40 0 -19 49 55
128 29 31 86 47 70 20z m-1336 -60 c41 -60 126 -145 197 -197 73 -54 115 -92
115 -103 0 -12 -49 -34 -123 -53 l-68 -18 -87 84 c-48 46 -116 108 -150 137
-34 29 -62 60 -62 68 0 26 112 124 142 124 4 0 20 -19 36 -42z m-976 -491 c28
-20 52 -72 42 -88 -10 -17 -41 -9 -77 22 -29 25 -37 39 -37 66 0 31 2 34 22
27 13 -4 35 -16 50 -27z m1668 11 c0 -16 -61 -78 -77 -78 -26 0 -12 38 24 63
42 30 53 33 53 15z m-380 -102 c0 -8 -11 -27 -24 -43 -12 -15 -28 -38 -35 -50
-12 -23 -41 -32 -41 -13 0 15 23 54 38 63 6 4 12 16 12 26 0 10 3 21 7 24 12
13 43 7 43 -7z m-1004 -78 c-3 -17 -14 -40 -23 -50 -20 -22 -76 -24 -97 -2
-24 23 -20 44 9 44 14 0 29 8 35 20 8 14 21 20 47 20 35 0 35 -1 29 -32z m274
-6 c0 -21 -38 -43 -64 -36 -30 7 -33 19 -8 33 21 13 72 14 72 3z m358 -164
c-3 -7 -21 -14 -41 -16 -28 -2 -37 1 -37 12 0 12 11 16 41 16 28 0 39 -4 37
-12z"/>
<path d="M1740 2055 c-5 -14 -10 -40 -10 -56 0 -24 4 -29 23 -29 29 1 59 43
55 78 -2 21 -9 28 -30 30 -22 3 -30 -2 -38 -23z"/>
<path d="M2056 2044 c-10 -14 -16 -37 -14 -52 2 -21 8 -27 28 -27 20 0 26 7
32 35 14 67 -14 94 -46 44z"/>
<path d="M885 1736 c-22 -8 -65 -19 -95 -26 -30 -6 -93 -21 -140 -32 -105 -25
-175 -38 -217 -41 -40 -3 -62 -22 -46 -38 14 -14 120 5 303 53 63 17 147 35
185 39 81 10 118 24 113 42 -6 17 -56 19 -103 3z"/>
<path d="M810 1574 c-73 -19 -290 -63 -362 -73 -144 -21 -229 -53 -205 -77 5
-5 107 16 227 48 25 6 74 15 110 19 127 15 332 67 327 83 -5 16 -35 16 -97 0z"/>
<path d="M720 1393 c-14 -2 -56 -12 -95 -23 -38 -10 -90 -23 -115 -29 -162
-37 -198 -46 -299 -77 -13 -4 -13 -7 0 -19 15 -15 28 -13 139 20 30 9 71 20
90 25 71 16 137 33 195 50 33 10 77 21 98 25 22 3 37 11 35 17 -5 14 -15 16
-48 11z"/>
<path d="M1412 2350 c-27 -25 -57 -83 -67 -128 -6 -31 -5 -33 17 -30 17 2 24
10 26 33 2 17 21 51 44 79 32 38 38 50 27 57 -20 12 -22 12 -47 -11z"/>
<path d="M1528 2333 c-9 -2 -20 -13 -23 -23 -3 -10 -14 -20 -25 -23 -14 -4
-17 -11 -13 -28 5 -17 -1 -28 -22 -45 l-29 -23 29 -11 c40 -15 52 -8 66 41 7
23 28 56 46 74 41 40 31 54 -29 38z"/>
<path d="M1697 1315 c-37 -13 -80 -33 -96 -44 -16 -12 -32 -21 -35 -21 -4 0
-20 -10 -37 -22 l-29 -22 -16 22 c-30 44 -89 15 -60 -30 20 -32 29 -88 18
-118 -12 -32 -5 -50 19 -50 19 0 51 49 48 73 -4 33 5 45 59 77 125 75 203 100
313 100 95 0 112 -7 105 -41 -7 -36 14 -55 43 -39 12 6 21 19 21 29 0 10 11
26 25 35 47 31 22 81 -29 58 -16 -7 -39 -6 -82 4 -89 21 -187 17 -267 -11z"/>
</g>
</svg>
